<svg xmlns="http://www.w3.org/2000/svg" width="78.754" height="70.077" viewBox="0 0 78.754 70.077">
  <g id="Group_6792" data-name="Group 6792" transform="translate(-1356 -3396)">
    <g id="air_travel" transform="translate(1355.064 3395.452)">
      <g id="Group_6752" data-name="Group 6752">
        <path id="Path_3205" data-name="Path 3205" d="M6.206,32.062,3.819,17.735H6.729l6.245,12.491a1.323,1.323,0,0,0,1.185.732H59.115a19.842,19.842,0,0,1,9.715,2.552l.411.824-1.182.591H63.082v2.645h5.289a1.329,1.329,0,0,0,.591-.132l2.645-1.322a1.307,1.307,0,0,0,.595-.644l4.55,2.655a.591.591,0,0,1-.065,1.058l-2.512,1.076A23.756,23.756,0,0,1,67.771,42l-3.495.436a65.529,65.529,0,0,1-11.7.2L44.509,41.9l2.257-2.006a1.322,1.322,0,0,0-.755-2.322L31.467,36.247a1.321,1.321,0,0,0-1.209.568l-2.058,3L4.737,36.575a1.341,1.341,0,0,1-.415-2.526l1.172-.586a1.322,1.322,0,0,0,.713-1.4ZM29.4,13.183l2.84-.052L45.611,28.313H36.172Zm-7.67,45.41L18.971,57.9,32,38.953l10.734.976L40.9,41.554l-.181-.018-.017.191ZM4.374,39.2,26.521,42.25,15.714,57.976a1.323,1.323,0,0,0,.768,2.031l5.289,1.322a1.321,1.321,0,0,0,1.2-.294L41.8,44.3l10.532.957c1.35.123,3.042.181,4.788.181a65.351,65.351,0,0,0,7.48-.389l3.495-.436a26.344,26.344,0,0,0,7.118-1.929L77.729,41.6a3.236,3.236,0,0,0,.356-5.769l-7.646-4.46a22.5,22.5,0,0,0-11.324-3.061h-9.98L33.824,10.927a1.4,1.4,0,0,0-1.017-.448l-5.45.1a1.322,1.322,0,0,0-1.183,1.868l7.1,15.867h-18.3L8.737,15.821a1.322,1.322,0,0,0-1.191-.731H2.258a1.322,1.322,0,0,0-1.3,1.54l2.483,14.9-.3.15a3.986,3.986,0,0,0,1.235,7.512Z" fill="#082471"/>
      </g>
      <g id="Group_6753" data-name="Group 6753">
        <path id="Path_3206" data-name="Path 3206" d="M18.125,32.28h2.645v2.645H18.125Z" fill="#082471"/>
      </g>
      <g id="Group_6754" data-name="Group 6754">
        <path id="Path_3207" data-name="Path 3207" d="M23.414,32.28h2.645v2.645H23.414Z" fill="#082471"/>
      </g>
      <g id="Group_6755" data-name="Group 6755">
        <path id="Path_3208" data-name="Path 3208" d="M28.7,32.28h2.645v2.645H28.7Z" fill="#082471"/>
      </g>
      <g id="Group_6756" data-name="Group 6756">
        <path id="Path_3209" data-name="Path 3209" d="M33.992,32.28h2.645v2.645H33.992Z" fill="#082471"/>
      </g>
      <g id="Group_6757" data-name="Group 6757">
        <path id="Path_3210" data-name="Path 3210" d="M39.281,32.28h2.645v2.645H39.281Z" fill="#082471"/>
      </g>
      <g id="Group_6758" data-name="Group 6758">
        <path id="Path_3211" data-name="Path 3211" d="M44.57,32.28h2.645v2.645H44.57Z" fill="#082471"/>
      </g>
      <g id="Group_6759" data-name="Group 6759">
        <path id="Path_3212" data-name="Path 3212" d="M49.859,32.28H52.5v2.645H49.859Z" fill="#082471"/>
      </g>
      <g id="Group_6760" data-name="Group 6760">
        <path id="Path_3213" data-name="Path 3213" d="M76.3,9.14a1.983,1.983,0,0,1-1.586,1.943,1.326,1.326,0,0,0-.148.04H59.529a1.322,1.322,0,0,0-.15-.04,1.983,1.983,0,0,1,.4-3.927,1.929,1.929,0,0,1,.565.1,1.322,1.322,0,0,0,1.564-.679,1.335,1.335,0,0,1,1.89-.529A1.322,1.322,0,0,0,65.8,5.235,2.638,2.638,0,0,1,70.96,6.324,1.323,1.323,0,0,0,73.088,7.6,1.966,1.966,0,0,1,76.3,9.14ZM73.511,4.584a5.289,5.289,0,0,0-9.75-1.336,3.994,3.994,0,0,0-3.639,1.278A4.628,4.628,0,0,0,58.4,13.56a1.324,1.324,0,0,0,.712.208H74.982a1.234,1.234,0,0,0,.661-.192,4.628,4.628,0,0,0-1.322-9.064,4.545,4.545,0,0,0-.81.072Z" fill="#ffd61f"/>
      </g>
      <g id="Group_6761" data-name="Group 6761">
        <path id="Path_3214" data-name="Path 3214" d="M48.273,67.941a1.347,1.347,0,0,0-.148.04H33.084a1.338,1.338,0,0,0-.15-.04,1.983,1.983,0,0,1,.4-3.927,1.929,1.929,0,0,1,.565.1,1.322,1.322,0,0,0,1.564-.679,1.333,1.333,0,0,1,1.89-.529,1.322,1.322,0,0,0,2.007-.812,2.638,2.638,0,0,1,5.157,1.089,1.323,1.323,0,0,0,2.128,1.276,1.983,1.983,0,1,1,1.63,3.483Zm-.4-6.571a4.546,4.546,0,0,0-.81.072,5.289,5.289,0,0,0-9.75-1.336,3.994,3.994,0,0,0-3.639,1.278,4.628,4.628,0,0,0-1.719,9.034,1.324,1.324,0,0,0,.712.208H48.537a1.234,1.234,0,0,0,.661-.192,4.628,4.628,0,0,0-1.322-9.064Z" fill="#ffd61f"/>
      </g>
    </g>
  </g>
</svg>
