<svg xmlns="http://www.w3.org/2000/svg" width="69.552" height="69.552" viewBox="0 0 69.552 69.552">
  <g id="Group_6789" data-name="Group 6789" transform="translate(-1641 -3396)">
    <g id="products" transform="translate(1640.766 3395.41)">
      <g id="Group_6776" data-name="Group 6776">
        <path id="Path_3229" data-name="Path 3229" d="M17.622,23.774a6.931,6.931,0,0,1,2.318-5.169,6.931,6.931,0,0,1,2.318,5.169v4.637H17.622ZM8.348,28.411V23.774a6.947,6.947,0,0,1,9.571-6.441A9.239,9.239,0,0,0,15.3,23.774v4.637ZM6.03,34.439,3.559,30.73H8.5ZM8.5,67.824H3.559l2.471-3.71Zm-1.507-6.44a1.2,1.2,0,0,0-1.929,0L2.552,65.158V33.4l2.513,3.77a1.159,1.159,0,0,0,1.929,0L9.507,33.4V65.158Zm17.583-37.61a9.239,9.239,0,0,0-2.616-6.441,6.939,6.939,0,0,1,7.483,1.472l1.623-1.655a9.24,9.24,0,0,0-11.128-1.391A9.256,9.256,0,0,0,6.03,23.774v4.637H1.393A1.159,1.159,0,0,0,.234,29.57V68.983a1.159,1.159,0,0,0,1.159,1.159H25.736V67.824H11.826V30.729H15.3v4.637h2.318V30.729h8.114V28.411H24.577Z" fill="#ffd61f"/>
      </g>
      <g id="Group_6777" data-name="Group 6777">
        <path id="Path_3230" data-name="Path 3230" d="M41.965,2.909V5.227H37.328V2.909ZM37.212,16.178a1.163,1.163,0,0,0,.116-.518V7.545h4.637V15.66a1.163,1.163,0,0,0,.116.518l6.955,13.91,2.075-1.036L44.283,15.386V1.749A1.159,1.159,0,0,0,43.124.59H36.169A1.159,1.159,0,0,0,35.01,1.749V15.386L28.176,29.052a1.157,1.157,0,0,0-.122.518V68.983a1.159,1.159,0,0,0,1.159,1.159h8.114V67.824H30.373V29.843Z" fill="#082471"/>
      </g>
      <g id="Group_6778" data-name="Group 6778">
        <path id="Path_3231" data-name="Path 3231" d="M67.467,67.824H60.512V46.958h6.955Zm-9.274,0H41.965V46.958H58.194ZM46.115,38.844H62l-3.315,5.8H42.8Zm.487-4.637H62.831v2.318H46.6ZM66.629,44.64H61.351l2.639-4.618Zm2.993.565-4.473-7.828V33.048a1.159,1.159,0,0,0-1.159-1.159H45.443a1.159,1.159,0,0,0-1.159,1.159v4.329L39.8,45.219a1.149,1.149,0,0,0-.153.58V68.983a1.159,1.159,0,0,0,1.159,1.159H68.627a1.159,1.159,0,0,0,1.159-1.159V45.8a1.149,1.149,0,0,0-.164-.594Z" fill="#082471"/>
      </g>
    </g>
  </g>
</svg>
