<svg xmlns="http://www.w3.org/2000/svg" width="66.616" height="70.354" viewBox="0 0 66.616 70.354">
  <g id="Group_6788" data-name="Group 6788" transform="translate(-1731 -3396)">
    <g id="schedule" transform="translate(1730.576 3395.584)">
      <g id="Group_6779" data-name="Group 6779">
        <path id="Path_3232" data-name="Path 3232" d="M59.9,68.021H51.276V24.261a.947.947,0,0,1,.946-.946h6.736a.947.947,0,0,1,.946.946Zm-21.777,0H29.5V44.088a.947.947,0,0,1,.946-.946h6.736a.947.947,0,0,1,.946.946Zm-30.4,0v-12.4a.947.947,0,0,1,.946-.946H15.4a.947.947,0,0,1,.946.946v12.4Zm54.93,0V24.261a3.7,3.7,0,0,0-3.694-3.694H52.222a3.7,3.7,0,0,0-3.694,3.694v43.76H40.875V44.088a3.7,3.7,0,0,0-3.694-3.694H30.445a3.7,3.7,0,0,0-3.694,3.694V68.021H19.1v-12.4A3.7,3.7,0,0,0,15.4,51.933H8.668a3.7,3.7,0,0,0-3.694,3.694v12.4H1.8a1.374,1.374,0,1,0,0,2.748H65.666a1.374,1.374,0,1,0,0-2.748Z" fill="#082471"/>
      </g>
      <g id="Group_6780" data-name="Group 6780">
        <path id="Path_3233" data-name="Path 3233" d="M62.649,1.861A1.369,1.369,0,0,0,61.207.419c-.022,0-.044,0-.067,0H52.827a1.374,1.374,0,0,0,0,2.748h5.133L44.377,16.748h0l-5.123-5.123a1.374,1.374,0,0,0-1.943,0l-24.7,24.7a1.374,1.374,0,0,0,1.943,1.943L38.282,14.54h0l5.123,5.123a1.374,1.374,0,0,0,1.943,0L59.9,5.108h0V9.753a1.374,1.374,0,1,0,2.748,0V1.928c0-.022,0-.044,0-.067Z" fill="#ffd61f"/>
      </g>
    </g>
  </g>
</svg>
