<svg xmlns="http://www.w3.org/2000/svg" width="84.135" height="53.221" viewBox="0 0 84.135 53.221">
  <g id="Group_6787" data-name="Group 6787" transform="translate(-1818 -3414)">
    <g id="truck" transform="translate(1817.051 3413.311)">
      <g id="Group_6781" data-name="Group 6781">
        <path id="Path_3234" data-name="Path 3234" d="M15.575,25.269a1.374,1.374,0,1,1,1.374,1.374,1.374,1.374,0,0,1-1.374-1.374Z" fill="#ffd61f"/>
      </g>
      <g id="Group_6782" data-name="Group 6782">
        <path id="Path_3235" data-name="Path 3235" d="M80.957,34.414a1.5,1.5,0,0,1-1.493-1.493V31.428H82.45v2.986ZM71.121,51.276a5.709,5.709,0,1,1,5.709-5.709A5.715,5.715,0,0,1,71.121,51.276Zm-46.371,0a5.709,5.709,0,1,1,5.709-5.709A5.715,5.715,0,0,1,24.749,51.276ZM62.6,23.173V14.566H74.308l2.152,8.607Zm0-14.227h9.924a2.9,2.9,0,0,1,2.9,2.9v.088H62.6Zm14.414,5.592a1.318,1.318,0,0,0,1.043-1.288V11.843A5.539,5.539,0,0,0,72.526,6.31H62.6v-2.9A2.726,2.726,0,0,0,59.879.689H9.292A2.726,2.726,0,0,0,6.57,3.412V27.3a1.317,1.317,0,1,0,2.635,0V3.412a.088.088,0,0,1,.088-.088H59.879a.088.088,0,0,1,.088.088V27.3a1.317,1.317,0,1,0,2.635,0V25.807H78.149a4.311,4.311,0,0,1,4.094,2.986h-4.1a1.317,1.317,0,0,0-1.317,1.317v2.81a4.132,4.132,0,0,0,4.128,4.128H82.45v5.8H79a8.341,8.341,0,0,0-15.77,0H62.6V32.921a1.317,1.317,0,1,0-2.635,0v9.924H32.634a8.341,8.341,0,0,0-15.77,0H9.292a.088.088,0,0,1-.088-.088v-2.9h5.709a1.317,1.317,0,0,0,0-2.635H2.266a1.317,1.317,0,1,0,0,2.635h4.3v2.9A2.726,2.726,0,0,0,9.292,45.48h7.116c0,.029,0,.058,0,.088a8.343,8.343,0,1,0,16.686,0c0-.03,0-.058,0-.088H62.779c0,.029,0,.058,0,.088a8.343,8.343,0,1,0,16.686,0c0-.03,0-.058,0-.088h4.306a1.317,1.317,0,0,0,1.317-1.317V30.11a6.949,6.949,0,0,0-5.89-6.859Z" fill="#082471"/>
      </g>
      <g id="Group_6783" data-name="Group 6783">
        <path id="Path_3236" data-name="Path 3236" d="M24.749,42.845a2.723,2.723,0,1,0,2.723,2.723,2.726,2.726,0,0,0-2.723-2.723Z" fill="#ffd61f"/>
      </g>
      <g id="Group_6784" data-name="Group 6784">
        <path id="Path_3237" data-name="Path 3237" d="M71.121,42.845a2.723,2.723,0,1,0,2.723,2.723A2.726,2.726,0,0,0,71.121,42.845Z" fill="#ffd61f"/>
      </g>
      <g id="Group_6785" data-name="Group 6785">
        <path id="Path_3238" data-name="Path 3238" d="M21.939,31.6H5.077a1.317,1.317,0,0,0,0,2.635H21.939a1.317,1.317,0,1,0,0-2.635Z" fill="#ffd61f"/>
      </g>
      <g id="Group_6786" data-name="Group 6786">
        <path id="Path_3239" data-name="Path 3239" d="M46.759,13.722a1.317,1.317,0,0,0-1.863,0L33.181,25.437h0l-6.094-6.094a1.317,1.317,0,0,0-1.863,1.863l7.026,7.026a1.317,1.317,0,0,0,1.863,0L46.759,15.585a1.318,1.318,0,0,0,0-1.863Z" fill="#ffd61f"/>
      </g>
    </g>
  </g>
</svg>
