<svg xmlns="http://www.w3.org/2000/svg" width="81.088" height="79.819" viewBox="0 0 81.088 79.819"><g id="Group_6790" data-name="Group 6790" transform="translate(-1529 -3396)"><g id="money_schedule" transform="translate(1528.882 3395.918)"><g id="Group_6768" data-name="Group 6768"><path id="Path_3221" data-name="Path 3221" d="M17.3,43.149a1.19,1.19,0,0,0,1.19-1.19v-.825a3.671,3.671,0,0,0-3.3-3.647v-1.3a1.19,1.19,0,1,0-2.38,0v1.361a4.078,4.078,0,0,0,.777,8.081h.825a1.7,1.7,0,0,1,0,3.4H13.178a1.287,1.287,0,0,1-1.285-1.286,1.19,1.19,0,1,0-2.38,0,3.671,3.671,0,0,0,3.3,3.647v1.3a1.19,1.19,0,1,0,2.38,0V51.325a4.078,4.078,0,0,0-.777-8.081h-.825a1.7,1.7,0,1,1,0-3.4h1.238a1.287,1.287,0,0,1,1.285,1.286v.825a1.19,1.19,0,0,0,1.19,1.19Z" fill="#082471"></path></g><g id="Group_6769" data-name="Group 6769"><path id="Path_3222" data-name="Path 3222" d="M43.963,12.682a1.19,1.19,0,0,0,1.19-1.19v-.825a3.671,3.671,0,0,0-3.3-3.647v-1.3a1.19,1.19,0,1,0-2.38,0V7.076a4.078,4.078,0,0,0,.777,8.081h.825a1.7,1.7,0,0,1,0,3.4H39.837a1.287,1.287,0,0,1-1.285-1.286,1.19,1.19,0,0,0-2.38,0,3.671,3.671,0,0,0,3.3,3.647v1.3a1.19,1.19,0,0,0,2.38,0V20.858a4.078,4.078,0,0,0-.777-8.081H40.25a1.7,1.7,0,0,1,0-3.4h1.238a1.287,1.287,0,0,1,1.285,1.286v.825a1.19,1.19,0,0,0,1.19,1.19Z" fill="#082471"></path></g><g id="Group_6770" data-name="Group 6770"><path id="Path_3223" data-name="Path 3223" d="M67.322,48.322a11.5,11.5,0,0,1-8.475-19.276,1.177,1.177,0,0,0,.7-.7,11.5,11.5,0,1,1,7.771,19.98ZM40.662,25.472a11.5,11.5,0,1,1,11.5-11.5A11.518,11.518,0,0,1,40.662,25.472ZM25.508,44.435A11.5,11.5,0,1,1,14,32.93,11.518,11.518,0,0,1,25.508,44.435Zm41.814-21.5a13.825,13.825,0,0,0-9.02,3.338l-5.892-4.91a13.886,13.886,0,1,0-21.181,2.784l-9.7,8.624a13.932,13.932,0,1,0,1.91,1.487l9.7-8.624A13.862,13.862,0,0,0,50.97,23.26l5.656,4.713a13.879,13.879,0,1,0,10.7-5.04Z" fill="#ffd61f"></path></g><g id="Group_6771" data-name="Group 6771"><path id="Path_3224" data-name="Path 3224" d="M70.622,35.532a1.19,1.19,0,0,0,1.19-1.19v-.825a3.671,3.671,0,0,0-3.3-3.647v-1.3a1.19,1.19,0,0,0-2.38,0v1.361a4.078,4.078,0,0,0,.777,8.081h.825a1.7,1.7,0,0,1,0,3.4H66.5a1.287,1.287,0,0,1-1.285-1.286,1.19,1.19,0,0,0-2.38,0,3.671,3.671,0,0,0,3.3,3.647v1.3a1.19,1.19,0,0,0,2.38,0V43.709a4.078,4.078,0,0,0-.777-8.081h-.825a1.7,1.7,0,0,1,0-3.4h1.238a1.287,1.287,0,0,1,1.285,1.286v.825a1.19,1.19,0,0,0,1.19,1.19Z" fill="#082471"></path></g><g id="Group_6772" data-name="Group 6772"><path id="Path_3225" data-name="Path 3225" d="M24.238,77.521H16.463V64.667h7.776Zm1.19-15.234H15.273a1.19,1.19,0,0,0-1.19,1.19V78.711a1.19,1.19,0,0,0,1.19,1.19H25.429a1.19,1.19,0,0,0,1.19-1.19V63.477a1.19,1.19,0,0,0-1.19-1.19Z" fill="#082471"></path></g><g id="Group_6773" data-name="Group 6773"><path id="Path_3226" data-name="Path 3226" d="M73.748,77.521H65.973V64.667h7.776Zm1.19-15.234H64.783a1.19,1.19,0,0,0-1.19,1.19V78.711a1.19,1.19,0,0,0,1.19,1.19H74.939a1.19,1.19,0,0,0,1.19-1.19V63.477a1.19,1.19,0,0,0-1.19-1.19Z" fill="#082471"></path></g><g id="Group_6774" data-name="Group 6774"><path id="Path_3227" data-name="Path 3227" d="M41.932,67.286a1.19,1.19,0,0,0,1.19-1.19V48.243a1.19,1.19,0,0,0-1.19-1.19H31.776a1.19,1.19,0,0,0-1.19,1.19V78.711a1.19,1.19,0,0,0,1.19,1.19H41.932a1.19,1.19,0,0,0,1.19-1.19V71.65a1.19,1.19,0,0,0-2.38,0v5.871H32.966V49.433h7.776V66.1a1.19,1.19,0,0,0,1.19,1.19Z" fill="#082471"></path></g><g id="Group_6775" data-name="Group 6775"><path id="Path_3228" data-name="Path 3228" d="M57.245,77.521H49.469V57.05h7.776Zm1.19-22.851H48.279a1.19,1.19,0,0,0-1.19,1.19V78.711a1.19,1.19,0,0,0,1.19,1.19H58.435a1.19,1.19,0,0,0,1.19-1.19V55.86a1.19,1.19,0,0,0-1.19-1.19Z" fill="#082471"></path></g></g></g></svg>